<svg width="60" height="55" viewBox="0 0 60 55" fill="none" xmlns="http://www.w3.org/2000/svg">
<path d="M2.00071 9.37655e-07C0.895717 9.37655e-07 0 0.895752 0 2.00071C0 3.10567 0.895717 4.00142 2.00071 4.00142H8.37797L15.2554 36.4505C15.5275 37.672 16.3281 38.6886 17.3395 38.6805H50.6846C51.7416 38.6951 52.7138 37.7369 52.7138 36.6798C52.7138 35.6226 51.7416 34.6641 50.6846 34.679H18.9651L18.1106 30.6776H53.3523C54.248 30.671 55.0944 29.9886 55.2904 29.1145L59.9587 9.1074C60.2189 7.94627 59.2105 6.67756 58.0206 6.66903H13.0463L11.9626 1.5839C11.7732 0.695514 10.9119 -0.000932727 10.0035 9.37655e-07H2.00071ZM13.8799 10.6705H24.3003L25.3006 16.6726H15.1512L13.8799 10.6705ZM28.3851 10.6705H40.9729L39.9725 16.6726H29.3854L28.3851 10.6705ZM45.0576 10.6705H55.4989L54.1025 16.6726H44.0573L45.0576 10.6705ZM16.0057 20.674H25.9675L26.9679 26.6762H17.2769L16.0057 20.674ZM30.0523 20.674H39.3056L38.3052 26.6762H31.0527L30.0523 20.674ZM43.3904 20.674H53.1647L51.7684 26.6762H42.39L43.3904 20.674ZM24.6754 41.348C21.0159 41.348 18.0064 44.3575 18.0064 48.017C18.0064 51.6765 21.0159 54.6861 24.6754 54.6861C28.3349 54.6861 31.3444 51.6765 31.3444 48.017C31.3444 44.3575 28.3349 41.348 24.6754 41.348ZM43.3487 41.348C39.6892 41.348 36.6797 44.3575 36.6797 48.017C36.6797 51.6765 39.6892 54.6861 43.3487 54.6861C47.0082 54.6861 50.0177 51.6765 50.0177 48.017C50.0177 44.3575 47.0082 41.348 43.3487 41.348ZM24.6754 45.3494C26.1724 45.3494 27.343 46.52 27.343 48.017C27.343 49.514 26.1724 50.6846 24.6754 50.6846C23.1786 50.6846 22.0078 49.514 22.0078 48.017C22.0078 46.52 23.1786 45.3494 24.6754 45.3494ZM43.3487 45.3494C44.8457 45.3494 46.0163 46.52 46.0163 48.017C46.0163 49.514 44.8457 50.6846 43.3487 50.6846C41.8518 50.6846 40.6811 49.514 40.6811 48.017C40.6811 46.52 41.8518 45.3494 43.3487 45.3494Z" fill="#5D2510"/>
</svg>
