<svg width="89" height="82" viewBox="0 0 89 82" fill="none" xmlns="http://www.w3.org/2000/svg">
<path d="M58.0001 1V4C58.0001 4.6 57.6001 5 57.0001 5H48.0001C47.4001 5 47.0001 4.6 47.0001 4V1C47.0001 0.4 47.4001 0 48.0001 0H57.0001C57.6001 0 58.0001 0.4 58.0001 1ZM18.5001 31C18.9001 30.4 19.2001 29.7 19.2001 29C19.2001 27.1 17.7001 25.6 15.8001 25.6C13.9001 25.6 12.4001 27.1 12.4001 29C12.4001 30.9 12.7001 30.4 13.1001 31H18.6001H18.5001ZM83.5001 43L78.7001 76C78.2001 79.4 75.2001 82 71.8001 82H16.2001C12.8001 82 9.8001 79.4 9.3001 76L4.5001 43H83.6001H83.5001ZM21.9001 51C21.9001 49.9 21.0001 49 19.9001 49C18.8001 49 17.9001 49.9 17.9001 51V74C17.9001 75.1 18.8001 76 19.9001 76C21.0001 76 21.9001 75.1 21.9001 74V51ZM33.9001 51C33.9001 49.9 33.0001 49 31.9001 49C30.8001 49 29.9001 49.9 29.9001 51V74C29.9001 75.1 30.8001 76 31.9001 76C33.0001 76 33.9001 75.1 33.9001 74V51ZM45.9001 51C45.9001 49.9 45.0001 49 43.9001 49C42.8001 49 41.9001 49.9 41.9001 51V74C41.9001 75.1 42.8001 76 43.9001 76C45.0001 76 45.9001 75.1 45.9001 74V51ZM57.9001 51C57.9001 49.9 57.0001 49 55.9001 49C54.8001 49 53.9001 49.9 53.9001 51V74C53.9001 75.1 54.8001 76 55.9001 76C57.0001 76 57.9001 75.1 57.9001 74V51ZM69.9001 51C69.9001 49.9 69.0001 49 67.9001 49C66.8001 49 65.9001 49.9 65.9001 51V74C65.9001 75.1 66.8001 76 67.9001 76C69.0001 76 69.9001 75.1 69.9001 74V51ZM23.5001 28.2V31H28.2001L30.5001 22.4L28.9001 16C29.0001 15.8 29.1001 15.6 29.1001 15.4V12.2C29.1001 11.6 28.7001 11.2 28.1001 11.2H9.4001C8.8001 11.2 8.4001 11.6 8.4001 12.2V15.4C8.4001 15.8 8.6001 16.1 8.9001 16.3L6.0001 28V28.2V31H8.0001V28.3L11.0001 16.4H26.5001L23.6001 28V28.2H23.5001ZM34.3001 35.3L42.1001 6.3C42.5001 5 41.7001 3.6 40.3001 3.2C39.0001 2.8 37.6001 3.6 37.2001 5L29.4001 34C29.0001 35.3 29.8001 36.7 31.2001 37.1C32.5001 37.5 33.9001 36.7 34.3001 35.3ZM84.9001 33H83.5001L56.3001 39.4C56.0001 39.4 55.6001 39.5 55.3001 39.5C53.2001 39.5 51.4001 38.1 50.9001 36C50.6001 34.9 50.9001 33.9 51.3001 33H37.0001L36.3001 35.8C35.8001 37.8 34.0001 39.1 32.0001 39.1C30.0001 39.1 31.2001 39.1 30.8001 38.9C29.6001 38.6 28.7001 37.8 28.1001 36.8C27.5001 35.8 27.3001 34.5 27.7001 33.4V32.9C27.8001 32.9 3.1001 32.9 3.1001 32.9C1.4001 32.9 0.100098 34.2 0.100098 35.9V37.9C0.100098 39.6 1.4001 40.9 3.1001 40.9H85.1001C86.8001 40.9 88.1001 39.6 88.1001 37.9V35.9C88.1001 34.2 86.8001 32.9 85.1001 32.9L84.9001 33ZM52.8001 35.6C53.1001 36.9 54.5001 37.8 55.8001 37.5L85.0001 30.6C86.3001 30.3 87.2001 28.9 86.9001 27.6C86.6001 26.3 85.2001 25.4 83.9001 25.7L54.7001 32.6C53.4001 32.9 52.5001 34.3 52.8001 35.6ZM64.7001 26.4L63.7001 28C63.5001 26.6 62.9001 25.2 62.2001 24L61.0001 22.1C58.3001 17.9 56.9001 13.1 56.9001 8.1V7H47.9001V8.1C47.9001 13.1 46.5001 17.9 43.8001 22.1L42.6001 24C41.5001 25.8 40.9001 27.8 40.9001 29.9V31H44.9001C44.9001 28.9 45.5001 26.9 46.6001 25.1C46.9001 24.6 47.5001 24.5 48.0001 24.8C48.5001 25.1 48.6001 25.7 48.3001 26.2C47.4001 27.6 46.9001 29.3 46.9001 31H53.3001C53.6001 30.8 53.9001 30.7 54.3001 30.6L63.9001 28.3L66.9001 27.6L64.8001 26.4H64.7001ZM85.8001 12.1L84.9001 11.6C82.6001 10.3 79.9001 9.9 77.3001 10.6C74.7001 11.3 72.6001 12.9 71.2001 15.2L69.7001 17.8L73.6001 20.1C74.3001 20.5 74.6001 21.4 74.1001 22.2C73.6001 23 72.8001 23.2 72.0001 22.7L68.1001 20.4L66.1001 23.9L70.0001 26.2C70.3001 26.4 70.5001 26.6 70.6001 26.9L83.3001 23.9C83.3001 23.9 83.4001 23.9 83.5001 23.9L87.1001 17.8C88.2001 15.9 87.6001 13.4 85.7001 12.3L85.8001 12.1Z" fill="#5D2510"/>
</svg>
