<svg width="16" height="16" viewBox="0 0 16 16" fill="none" xmlns="http://www.w3.org/2000/svg">
<path d="M0.266929 0.266929C-0.0889771 0.622835 -0.0889754 1.19987 0.266929 1.55577L6.71116 8L0.266944 14.4442C-0.0889597 14.8001 -0.0889597 15.3771 0.266944 15.7331C0.62285 16.089 1.19989 16.089 1.55579 15.7331L8 9.28885L14.4442 15.7331C14.8001 16.089 15.3772 16.089 15.7331 15.7331C16.089 15.3771 16.089 14.8001 15.7331 14.4442L9.28884 8L15.7331 1.55577C16.089 1.19987 16.089 0.622835 15.7331 0.266929C15.3772 -0.0889765 14.8001 -0.0889765 14.4442 0.266929L8 6.71116L1.55577 0.266929C1.19987 -0.0889765 0.622833 -0.0889765 0.266929 0.266929Z" fill="#9295AE"/>
</svg>
