<svg width="20" height="21" viewBox="0 0 20 21" fill="none" xmlns="http://www.w3.org/2000/svg">
<path d="M1.91739 20.3239H18.0826C18.5913 20.3233 19.079 20.1208 19.4385 19.7609C19.7981 19.401 20 18.9131 20 18.4043V8.13913C19.9999 8.06001 19.9826 7.98186 19.9491 7.91014C19.9157 7.83842 19.8671 7.77487 19.8065 7.72391L17.1304 5.46304V1.52174C17.1304 1.11815 16.9701 0.731088 16.6847 0.445707C16.3993 0.160326 16.0123 0 15.6087 0H4.49783C4.09424 0 3.70718 0.160326 3.42179 0.445707C3.13641 0.731088 2.97609 1.11815 2.97609 1.52174V5.38043L0.193478 7.72391C0.132948 7.77487 0.0842737 7.83842 0.0508554 7.91014C0.0174372 7.98186 8.11734e-05 8.06001 0 8.13913V18.4043C-3.26235e-07 18.9131 0.201941 19.401 0.561459 19.7609C0.920977 20.1208 1.40867 20.3233 1.91739 20.3239ZM18.0804 19.237H1.91739C1.69695 19.2364 1.48573 19.1484 1.33005 18.9923C1.17438 18.8362 1.08696 18.6248 1.08696 18.4043V9.17609L7.28261 13.5587L2.88478 16.9239C2.76947 17.0104 2.69324 17.1391 2.67285 17.2818C2.65247 17.4245 2.6896 17.5695 2.77609 17.6848C2.86257 17.8001 2.99132 17.8763 3.13401 17.8967C3.2767 17.9171 3.42164 17.88 3.53696 17.7935L8.21304 14.2152L9.73478 15.3022C9.82662 15.3672 9.93638 15.4022 10.0489 15.4022C10.1614 15.4022 10.2712 15.3672 10.363 15.3022L11.8848 14.2152L16.563 17.787C16.6784 17.8734 16.8233 17.9106 16.966 17.8902C17.1087 17.8698 17.2374 17.7936 17.3239 17.6783C17.4104 17.5629 17.4475 17.418 17.4271 17.2753C17.4068 17.1326 17.3305 17.0039 17.2152 16.9174L12.8261 13.5587L18.913 9.25435V18.4065C18.9125 18.6266 18.8248 18.8375 18.6692 18.9931C18.5136 19.1487 18.3027 19.2364 18.0826 19.237H18.0804ZM18.6087 8.13696L17.1304 9.18261V6.88478L18.6087 8.13696ZM4.49783 1.08913H15.6109C15.7262 1.08913 15.8368 1.13494 15.9183 1.21648C15.9998 1.29801 16.0457 1.4086 16.0457 1.52391V9.94565L10.0543 14.187L4.06522 9.94565V1.52174C4.06579 1.40718 4.11155 1.29748 4.19256 1.21647C4.27356 1.13546 4.38327 1.0897 4.49783 1.08913ZM2.97609 9.18261L1.43696 8.09565L2.97609 6.7913V9.18261ZM10 11.3957H10.1391C10.2833 11.3957 10.4215 11.3384 10.5234 11.2365C10.6253 11.1345 10.6826 10.9963 10.6826 10.8522C10.6826 10.708 10.6253 10.5698 10.5234 10.4679C10.4215 10.366 10.2833 10.3087 10.1391 10.3087H10C9.31464 10.3087 8.64468 10.1055 8.07483 9.7247C7.50498 9.34394 7.06083 8.80274 6.79856 8.16956C6.53628 7.53637 6.46766 6.83963 6.60137 6.16745C6.73507 5.49526 7.0651 4.87782 7.54972 4.3932C8.03434 3.90858 8.65178 3.57855 9.32397 3.44484C9.99616 3.31114 10.6929 3.37976 11.3261 3.64203C11.9593 3.90431 12.5005 4.34845 12.8812 4.91831C13.262 5.48816 13.4652 6.15812 13.4652 6.84348V7.77174C13.456 7.92604 13.3882 8.07098 13.2756 8.17696C13.1631 8.28295 13.0144 8.34197 12.8598 8.34197C12.7052 8.34197 12.5565 8.28295 12.4439 8.17696C12.3314 8.07098 12.2636 7.92604 12.2543 7.77174V6.84348C12.2577 6.33168 12.0873 5.83389 11.771 5.43152C11.4547 5.02915 11.0112 4.746 10.5131 4.62839C10.015 4.51078 9.49168 4.56565 9.0288 4.78404C8.56592 5.00244 8.19084 5.37142 7.9649 5.83066C7.73895 6.28989 7.67551 6.81221 7.78495 7.31218C7.89438 7.81215 8.17022 8.2602 8.56736 8.58306C8.96449 8.90591 9.45942 9.08446 9.97121 9.08951C10.483 9.09457 10.9813 8.92582 11.3848 8.61087C11.568 8.93856 11.8551 9.19596 12.2008 9.3425C12.5465 9.48904 12.9311 9.51638 13.2941 9.42023C13.657 9.32408 13.9776 9.10989 14.2054 8.81143C14.4332 8.51296 14.5552 8.14719 14.5522 7.77174V6.84348C14.5522 5.94314 14.2852 5.06303 13.785 4.31443C13.2848 3.56582 12.5738 2.98236 11.742 2.63782C10.9102 2.29327 9.99495 2.20313 9.11191 2.37877C8.22888 2.55442 7.41776 2.98797 6.78113 3.6246C6.14449 4.26124 5.71094 5.07236 5.53529 5.95539C5.35965 6.83843 5.4498 7.75372 5.79434 8.58552C6.13888 9.41732 6.72235 10.1283 7.47095 10.6285C8.21955 11.1287 9.09966 11.3957 10 11.3957ZM10 8.01087C9.76911 8.01087 9.54341 7.9424 9.35143 7.81413C9.15946 7.68585 9.00983 7.50353 8.92147 7.29022C8.83311 7.07691 8.81 6.84218 8.85504 6.61573C8.90008 6.38928 9.01127 6.18127 9.17453 6.01801C9.33779 5.85474 9.5458 5.74356 9.77225 5.69852C9.9987 5.65347 10.2334 5.67659 10.4467 5.76495C10.6601 5.85331 10.8424 6.00293 10.9706 6.19491C11.0989 6.38689 11.1674 6.61259 11.1674 6.84348C11.1674 7.15309 11.0444 7.45002 10.8255 7.66895C10.6065 7.88788 10.3096 8.01087 10 8.01087Z" fill="white"/>
</svg>
