<svg width="20" height="15" viewBox="0 0 20 15" fill="none" xmlns="http://www.w3.org/2000/svg">
<path d="M0.266566 6.12956L19.5014 0.0186107C19.7902 -0.0734953 20.0659 0.191231 19.986 0.483526L16.6207 12.796C16.5612 13.0134 16.3275 13.1324 16.1166 13.0525L9.32114 10.4823C9.05391 10.3812 8.98781 10.0331 9.19959 9.84136L14.5305 5.01113C14.8582 4.71445 14.5045 4.19063 14.1066 4.38424L5.18264 8.7245C5.0849 8.77212 4.9718 8.77557 4.87124 8.73453L0.238057 6.84792C-0.0930862 6.71289 -0.0742891 6.23764 0.266566 6.12956ZM10.9587 7.17061C11.126 7.02524 10.9402 6.76333 10.7475 6.87298L6.49499 9.19537C6.11153 9.41373 5.93139 9.86925 6.06172 10.2909L7.37533 14.7136C7.44206 14.9376 7.72339 15.0099 7.88974 14.8458L10.5116 12.3639C10.6188 12.258 10.5846 12.0773 10.4462 12.0184L7.72558 10.6625C7.57614 10.5879 7.54669 10.3877 7.66794 10.2734L10.9587 7.17061Z" fill="white"/>
</svg>
