<svg width="20" height="21" viewBox="0 0 20 21" fill="none" xmlns="http://www.w3.org/2000/svg">
<path d="M15.8441 11.7774L13.874 10.3394C13.6267 10.1582 13.3218 10.0834 13.017 10.1323C12.7121 10.1783 12.4446 10.3422 12.2663 10.5896L11.6566 11.4236C11.625 11.4668 11.6365 11.4265 11.6221 11.4811C11.6192 11.4869 11.5847 11.5329 11.4754 11.5502C11.2913 11.5789 10.7391 11.5444 9.54558 10.5896L9.43054 10.5062C8.17371 9.66924 7.97239 9.15442 7.94363 8.97036C7.92925 8.87545 7.95225 8.82943 7.94938 8.82656C7.98964 8.80067 7.97814 8.80067 8.00978 8.76041L8.6195 7.92635C8.80069 7.67901 8.87546 7.37415 8.82657 7.06929C8.77768 6.76443 8.61662 6.49696 8.36928 6.31577L6.36468 4.85186C5.85274 4.47798 5.13086 4.59014 4.75697 5.10208L4.1415 5.94764C3.59792 6.69253 3.45125 7.71065 3.75898 8.60798C4.23353 9.99135 5.44434 11.461 7.35979 12.9796C7.38567 13.0112 7.41443 13.0371 7.44895 13.063C7.49784 13.0975 7.54673 13.132 7.59562 13.1636C7.64164 13.201 7.69053 13.2355 7.73655 13.2729C7.76819 13.2988 7.80558 13.3189 7.84296 13.3333C9.87345 14.6937 11.6422 15.3983 13.1061 15.4299C13.1263 15.4299 13.1435 15.4299 13.1636 15.4299C14.0725 15.4299 14.9382 14.9842 15.4875 14.2278L16.103 13.3822C16.2842 13.1349 16.3589 12.83 16.31 12.5251C16.2611 12.2203 16.0915 11.9586 15.8441 11.7774ZM15.3983 12.876L14.7829 13.7216C14.386 14.2652 13.7619 14.5786 13.1148 14.5671C12.1858 14.547 10.5666 14.1645 8.09606 12.4676C5.72907 10.6327 4.86914 9.20619 4.56715 8.329C4.34857 7.69627 4.44923 6.97726 4.83175 6.4567L5.4501 5.61114C5.49611 5.54787 5.56226 5.5076 5.63704 5.4961C5.71182 5.48459 5.78947 5.50185 5.85274 5.54787L7.85734 7.01177C7.92062 7.05779 7.96088 7.12394 7.97239 7.19871C7.98389 7.27349 7.96663 7.35115 7.92062 7.41442L7.33103 8.22259C7.19298 8.37214 7.05493 8.64536 7.07794 8.99049C7.12395 9.68362 7.73655 10.4113 8.93874 11.2108L9.02502 11.2712C10.1639 12.1829 11.0469 12.5453 11.7199 12.3756C12.0564 12.2922 12.2749 12.0794 12.3756 11.901L12.9652 11.0929C13.0572 10.9635 13.2384 10.9376 13.3678 11.0296L15.3379 12.4676C15.4012 12.5136 15.4415 12.5798 15.453 12.6546C15.4616 12.738 15.4443 12.8156 15.3983 12.876Z" fill="white"/>
<path d="M10 0C4.48663 0 0 4.48663 0 10C0 12.3641 0.834053 14.6419 2.35548 16.4423L0.580961 19.9022C0.503308 20.0546 0.52344 20.2416 0.63273 20.3739C0.716135 20.4746 0.839805 20.5292 0.963474 20.5292C1.00374 20.5292 1.04688 20.5234 1.08714 20.5119L5.847 19.0969C7.15559 19.6951 8.55048 19.9971 10 19.9971C15.5134 19.9971 20 15.5105 20 9.99712C20 4.48375 15.5134 0 10 0ZM10 19.1343C8.62525 19.1343 7.30227 18.8352 6.06557 18.2456C5.96779 18.1996 5.8585 18.191 5.75784 18.2226L1.80903 19.396L3.25568 16.5746C3.33621 16.4165 3.3132 16.2238 3.19241 16.0886C1.69111 14.4119 0.862813 12.2462 0.862813 9.99712C0.862813 4.9583 4.96117 0.859937 10 0.859937C15.0388 0.859937 19.1372 4.9583 19.1372 9.99712C19.1372 15.036 15.0388 19.1343 10 19.1343Z" fill="white"/>
</svg>
